<svg width="24" height="24" viewBox="0 0 24 24" fill="none" xmlns="http://www.w3.org/2000/svg">
<path d="M9.73093 7.5645C10.0238 7.27161 10.0238 6.79673 9.73093 6.50384C9.43804 6.21095 8.96317 6.21095 8.67027 6.50384L9.73093 7.5645ZM7 17.25C6.58579 17.25 6.25 17.5858 6.25 18C6.25 18.4143 6.58579 18.75 7 18.75L7 17.25ZM12.0001 18.75C12.4143 18.75 12.7501 18.4142 12.7501 18C12.7501 17.5858 12.4143 17.25 12.0001 17.25L12.0001 18.75ZM13.5922 4.4182L15.6911 6.51702L16.7517 5.45636L14.6529 3.35754L13.5922 4.4182ZM8.68346 13.5246L7.11101 11.9522L6.05035 13.0128L7.6228 14.5853L8.68346 13.5246ZM12.4393 12.5972L17.2309 17.3887L18.2915 16.328L13.5 11.5365L12.4393 12.5972ZM19.7057 14.9138L14.9142 10.1223L13.8536 11.183L18.6451 15.9745L19.7057 14.9138ZM7 18.75L12.0001 18.75L12.0001 17.25L7 17.25L7 18.75ZM12.4393 11.5365L10.7382 13.2377L11.7988 14.2983L13.5 12.5972L12.4393 11.5365ZM10.7382 13.2377L10.4512 13.5246L11.5119 14.5853L11.7988 14.2983L10.7382 13.2377ZM7.11101 10.1844L7.39796 9.89748L6.3373 8.83682L6.05035 9.12376L7.11101 10.1844ZM7.39796 9.89748L9.73093 7.5645L8.67027 6.50384L6.3373 8.83682L7.39796 9.89748ZM11.7988 13.2377L7.39796 8.83682L6.3373 9.89748L10.7382 14.2983L11.7988 13.2377ZM15.6911 8.28479L15.3296 8.64625L16.3903 9.70691L16.7517 9.34545L15.6911 8.28479ZM15.3296 8.64625L12.4393 11.5365L13.5 12.5972L16.3903 9.70691L15.3296 8.64625ZM11.8166 6.19388L15.3296 9.70691L16.3903 8.64625L12.8772 5.13322L11.8166 6.19388ZM11.8166 3.35754C11.0333 4.14077 11.0333 5.41065 11.8166 6.19388L12.8772 5.13322C12.6798 4.93577 12.6798 4.61565 12.8772 4.4182L11.8166 3.35754ZM19.7057 17.3887C20.3891 16.7053 20.3891 15.5972 19.7057 14.9138L18.6451 15.9745C18.7427 16.0721 18.7427 16.2304 18.6451 16.328L19.7057 17.3887ZM7.6228 14.5853C8.69674 15.6592 10.4379 15.6592 11.5119 14.5853L10.4512 13.5246C9.96307 14.0128 9.17161 14.0128 8.68346 13.5246L7.6228 14.5853ZM15.6911 6.51702C16.1792 7.00518 16.1792 7.79664 15.6911 8.28479L16.7517 9.34545C17.8257 8.27151 17.8257 6.5303 16.7517 5.45636L15.6911 6.51702ZM14.6529 3.35754C13.8697 2.57431 12.5998 2.57431 11.8166 3.35754L12.8772 4.4182C13.0747 4.22076 13.3948 4.22076 13.5922 4.4182L14.6529 3.35754ZM17.2309 17.3887C17.9143 18.0721 19.0223 18.0721 19.7057 17.3887L18.6451 16.328C18.5474 16.4257 18.3891 16.4257 18.2915 16.328L17.2309 17.3887ZM7.11101 11.9522C6.62286 11.464 6.62286 10.6726 7.11101 10.1844L6.05035 9.12376C4.97641 10.1977 4.97641 11.9389 6.05035 13.0128L7.11101 11.9522Z" fill="white"/>
</svg>
