<svg width="24" height="24" viewBox="0 0 24 24" fill="none" xmlns="http://www.w3.org/2000/svg">
<path d="M14.4776 6.67065C13.984 6.92418 13.3784 6.72741 13.1282 6.2322L12.8925 5.76595C12.5226 5.03403 11.4774 5.03403 11.1075 5.76595L10.8719 6.2322C10.6216 6.72741 10.016 6.92418 9.52247 6.67065L9.05779 6.43195C8.32831 6.05724 7.48274 6.67158 7.6137 7.48115L7.69712 7.99685C7.78572 8.54459 7.41144 9.05974 6.86313 9.14473L6.34689 9.22476C5.53648 9.35038 5.2135 10.3444 5.7953 10.9224L6.16591 11.2906C6.55954 11.6816 6.55954 12.3184 6.16591 12.7094L5.7953 13.0776C5.2135 13.6556 5.53648 14.6496 6.34689 14.7752L6.86313 14.8553C7.41144 14.9403 7.78572 15.4554 7.69712 16.0031L7.6137 16.5188C7.48274 17.3284 8.32831 17.9428 9.05779 17.568L9.52248 17.3293C10.016 17.0758 10.6216 17.2726 10.8719 17.7678L11.1075 18.234C11.4774 18.966 12.5226 18.966 12.8925 18.234L13.1282 17.7678C13.3784 17.2726 13.984 17.0758 14.4776 17.3293L14.9423 17.568C15.6717 17.9428 16.5173 17.3284 16.3863 16.5189L16.3029 16.0031C16.2143 15.4554 16.5886 14.9403 17.1369 14.8553L17.6532 14.7752C18.4636 14.6496 18.7865 13.6556 18.2047 13.0776L17.8341 12.7094C17.4405 12.3184 17.4405 11.6816 17.8341 11.2906L18.2047 10.9224C18.7865 10.3444 18.4636 9.35038 17.6532 9.22476L17.1369 9.14473C16.5886 9.05974 16.2143 8.54459 16.3029 7.99685M15 12C15 13.6569 13.6568 15 12 15C10.3431 15 8.99997 13.6569 8.99997 12C8.99997 10.3431 10.3431 9 12 9C13.6568 9 15 10.3431 15 12Z" stroke="white" stroke-width="1.5" stroke-linecap="round"/>
</svg>
